<?xml version="1.0" encoding="UTF-8" standalone="no"?>
<!DOCTYPE svg PUBLIC "-//W3C//DTD SVG 1.1//EN" "http://www.w3.org/Graphics/SVG/1.1/DTD/svg11.dtd">
<svg version="1.1" xmlns="http://www.w3.org/2000/svg" xmlns:xlink="http://www.w3.org/1999/xlink" preserveAspectRatio="xMidYMid meet" viewBox="0 0 266 640" width="266" height="640"><defs><path d="M208.89 0C230.58 39.47 244.14 64.14 249.57 74C266.22 104.29 270.23 139.93 260.73 173.16C255.25 192.34 255.19 192.55 250.1 210.37C239.22 248.46 241.08 289.06 255.38 326C260.53 339.28 254.71 324.27 260.06 338.07C273.74 373.4 275.88 412.15 266.16 448.76C258.26 478.54 248.16 516.6 239.93 547.65C231.6 579.04 238.79 612.53 259.27 637.74C259.52 638.04 260.13 638.79 261.11 640L44.44 640C43.29 638.29 42.57 637.22 42.28 636.8C21.02 605.4 14.08 566.47 23.17 529.66C30.1 501.65 37.55 471.48 44.72 442.48C53.18 408.23 49.91 372.13 35.44 339.96C30.13 328.15 37 343.41 31.8 331.86C16.95 298.84 13.49 261.81 21.97 226.61C27.35 204.25 32.82 181.55 38.8 156.71C45.35 129.5 42.97 100.9 32 75.15C27.74 65.13 17.07 40.08 0 0L208.89 0Z" id="b8fdMpf2cG"></path></defs><g><g><g><use xlink:href="#b8fdMpf2cG" opacity="1" fill="#c8baa0" fill-opacity="1"></use><g><use xlink:href="#b8fdMpf2cG" opacity="1" fill-opacity="0" stroke="#000000" stroke-width="0" stroke-opacity="1"></use></g></g></g></g></svg>