<?xml version="1.0" encoding="UTF-8" standalone="no"?>
<!DOCTYPE svg PUBLIC "-//W3C//DTD SVG 1.1//EN" "http://www.w3.org/Graphics/SVG/1.1/DTD/svg11.dtd">
<svg version="1.1" xmlns="http://www.w3.org/2000/svg" xmlns:xlink="http://www.w3.org/1999/xlink" preserveAspectRatio="xMidYMid meet" viewBox="0 0 343 291" width="343" height="291"><defs><path d="M0 132.22L333.33 132.22L333.33 291.11L0 291.11L0 132.22Z" id="b5zp7Rp4i"></path><path d="M45.56 41.11L83.33 41.11L83.33 198.89L45.56 198.89L45.56 41.11Z" id="c1ZatUgXOG"></path><path d="M221.11 83.33L312.22 83.33L312.22 198.89L221.11 198.89L221.11 83.33Z" id="g1qetkveXB"></path><path d="M344.44 83.33L268.89 22.22L191.11 83.33L344.44 83.33Z" id="h4tOtL2Vs"></path><path d="M24.44 0L35.56 36.67L35.56 17.78L54.44 6.67L54.44 31.11L84.44 31.11L81.11 0L115.56 0L125.56 72.78L14.44 67.78L14.44 13.33L24.44 0Z" id="g1NEno2Q9K"></path></defs><g><g><g><use xlink:href="#b5zp7Rp4i" opacity="1" fill="#898989" fill-opacity="1"></use><g><use xlink:href="#b5zp7Rp4i" opacity="1" fill-opacity="0" stroke="#1748bd" stroke-width="0" stroke-opacity="1"></use></g></g><g><use xlink:href="#c1ZatUgXOG" opacity="1" fill="#898989" fill-opacity="1"></use><g><use xlink:href="#c1ZatUgXOG" opacity="1" fill-opacity="0" stroke="#ccfbc1" stroke-width="0" stroke-opacity="1"></use></g></g><g><use xlink:href="#g1qetkveXB" opacity="1" fill="#898989" fill-opacity="1"></use><g><use xlink:href="#g1qetkveXB" opacity="1" fill-opacity="0" stroke="#853428" stroke-width="0" stroke-opacity="1"></use></g></g><g><use xlink:href="#h4tOtL2Vs" opacity="1" fill="#898989" fill-opacity="1"></use><g><use xlink:href="#h4tOtL2Vs" opacity="1" fill-opacity="0" stroke="#000000" stroke-width="0" stroke-opacity="1"></use></g></g><g><use xlink:href="#g1NEno2Q9K" opacity="1" fill="#898989" fill-opacity="1"></use><g><use xlink:href="#g1NEno2Q9K" opacity="1" fill-opacity="0" stroke="#000000" stroke-width="0" stroke-opacity="1"></use></g></g></g></g></svg>